<svg width="32" height="28" viewBox="0 0 32 28" fill="none" xmlns="http://www.w3.org/2000/svg">
<path d="M28 0.776855H4C2.93913 0.776855 1.92172 1.16602 1.17157 1.85873C0.421427 2.55145 0 3.49097 0 4.47061L0 27.8644H32V4.47061C32 3.49097 31.5786 2.55145 30.8284 1.85873C30.0783 1.16602 29.0609 0.776855 28 0.776855ZM4 3.23936H28C28.3536 3.23936 28.6928 3.36908 28.9428 3.59998C29.1929 3.83089 29.3333 4.14406 29.3333 4.47061V5.29186L18.8293 14.9929C18.0779 15.684 17.0606 16.072 16 16.072C14.9394 16.072 13.9221 15.684 13.1707 14.9929L2.66667 5.29186V4.47061C2.66667 4.14406 2.80714 3.83089 3.05719 3.59998C3.30724 3.36908 3.64638 3.23936 4 3.23936ZM2.66667 25.4019V8.77999L11.2853 16.7339C12.5368 17.8866 14.2323 18.534 16 18.534C17.7677 18.534 19.4632 17.8866 20.7147 16.7339L29.3333 8.77999V25.4019H2.66667Z" fill="#D4BFA8"/>
</svg>
