<svg width="14" height="12" viewBox="0 0 14 12" fill="none" xmlns="http://www.w3.org/2000/svg">
<path d="M12.25 0H1.75C1.28587 0 0.840752 0.172402 0.512563 0.47928C0.184374 0.786158 0 1.20237 0 1.63636L0 12H14V1.63636C14 1.20237 13.8156 0.786158 13.4874 0.47928C13.1592 0.172402 12.7141 0 12.25 0ZM1.75 1.09091H12.25C12.4047 1.09091 12.5531 1.14838 12.6625 1.25067C12.7719 1.35296 12.8333 1.4917 12.8333 1.63636V2.00018L8.23783 6.29782C7.90908 6.60399 7.46399 6.77589 7 6.77589C6.53601 6.77589 6.09092 6.60399 5.76217 6.29782L1.16667 2.00018V1.63636C1.16667 1.4917 1.22812 1.35296 1.33752 1.25067C1.44692 1.14838 1.59529 1.09091 1.75 1.09091ZM1.16667 10.9091V3.54545L4.93733 7.06909C5.48487 7.57978 6.22665 7.86657 7 7.86657C7.77335 7.86657 8.51513 7.57978 9.06267 7.06909L12.8333 3.54545V10.9091H1.16667Z" fill="white"/>
</svg>
