<svg width="12" height="12" viewBox="0 0 12 12" fill="none" xmlns="http://www.w3.org/2000/svg">
<path d="M6.02443 0.95C6.80443 0.95 7.50443 1.09 8.12443 1.37C8.74443 1.64 9.26943 2.01 9.69943 2.48C10.1394 2.94 10.4744 3.48 10.7044 4.1C10.9444 4.71 11.0644 5.35 11.0644 6.02C11.0644 6.77 10.9244 7.46 10.6444 8.09C10.3744 8.72 9.99943 9.26 9.51943 9.71C9.03943 10.16 8.47943 10.515 7.83943 10.775C7.20943 11.025 6.53443 11.15 5.81443 11.15C5.04443 11.15 4.34943 11.01 3.72943 10.73C3.11943 10.45 2.59943 10.08 2.16943 9.62C1.74943 9.16 1.42443 8.63 1.19443 8.03C0.964434 7.43 0.849434 6.805 0.849434 6.155C0.849434 5.515 0.964434 4.885 1.19443 4.265C1.42443 3.635 1.75943 3.075 2.19943 2.585C2.64943 2.095 3.19443 1.7 3.83443 1.4C4.47443 1.1 5.20443 0.95 6.02443 0.95ZM6.00943 10.625C6.67943 10.595 7.26443 10.445 7.76443 10.175C8.27443 9.895 8.69943 9.545 9.03943 9.125C9.37943 8.695 9.62943 8.225 9.78943 7.715C9.95943 7.205 10.0444 6.7 10.0444 6.2C10.0444 5.65 9.94443 5.095 9.74443 4.535C9.54443 3.975 9.25943 3.47 8.88943 3.02C8.51943 2.56 8.07443 2.19 7.55443 1.91C7.04443 1.62 6.46943 1.475 5.82943 1.475C5.20943 1.475 4.65443 1.615 4.16443 1.895C3.67443 2.165 3.25443 2.515 2.90443 2.945C2.56443 3.375 2.30443 3.855 2.12443 4.385C1.94443 4.915 1.85443 5.435 1.85443 5.945C1.85443 6.495 1.95943 7.05 2.16943 7.61C2.37943 8.16 2.66943 8.66 3.03943 9.11C3.40943 9.56 3.84443 9.925 4.34443 10.205C4.85443 10.485 5.40943 10.625 6.00943 10.625Z" fill="url(#paint0_linear_542_74)"/>
<defs>
<linearGradient id="paint0_linear_542_74" x1="14" y1="5.74194" x2="-2" y2="5.74194" gradientUnits="userSpaceOnUse">
<stop stop-color="#DBB85C"/>
<stop offset="1" stop-color="#F8CC9D"/>
</linearGradient>
</defs>
</svg>
