<svg width="23" height="23" viewBox="0 0 23 23" fill="none" xmlns="http://www.w3.org/2000/svg">
<path d="M11.5 2.28313C14.4819 2.28313 14.8886 2.28313 16.1084 2.28313C17.1928 2.28313 17.7349 2.55422 18.1416 2.68976C18.6837 2.96084 19.0904 3.09639 19.497 3.50301C19.9036 3.90964 20.1747 4.31627 20.3102 4.85843C20.4458 5.26506 20.5813 5.80723 20.7169 6.89157C20.7169 8.11145 20.7169 8.38253 20.7169 11.5C20.7169 14.6175 20.7169 14.8886 20.7169 16.1084C20.7169 17.1928 20.4458 17.7349 20.3102 18.1416C20.0392 18.6837 19.9036 19.0904 19.497 19.497C19.0904 19.9036 18.6837 20.1747 18.1416 20.3102C17.7349 20.4458 17.1928 20.5813 16.1084 20.7169C14.8886 20.7169 14.6175 20.7169 11.5 20.7169C8.38253 20.7169 8.11145 20.7169 6.89157 20.7169C5.80723 20.7169 5.26506 20.4458 4.85843 20.3102C4.31627 20.0392 3.90964 19.9036 3.50301 19.497C3.09639 19.0904 2.8253 18.6837 2.68976 18.1416C2.55422 17.7349 2.41867 17.1928 2.28313 16.1084C2.28313 14.8886 2.28313 14.6175 2.28313 11.5C2.28313 8.38253 2.28313 8.11145 2.28313 6.89157C2.28313 5.80723 2.55422 5.26506 2.68976 4.85843C2.96084 4.31627 3.09639 3.90964 3.50301 3.50301C3.90964 3.09639 4.31627 2.8253 4.85843 2.68976C5.26506 2.55422 5.80723 2.41867 6.89157 2.28313C8.11145 2.28313 8.51807 2.28313 11.5 2.28313ZM11.5 0.25C8.38253 0.25 8.11145 0.25 6.89157 0.25C5.67169 0.25 4.85843 0.521085 4.18072 0.79217C3.50301 1.06325 2.8253 1.46988 2.14759 2.14759C1.46988 2.8253 1.1988 3.36747 0.79217 4.18072C0.521085 4.85843 0.385542 5.67169 0.25 6.89157C0.25 8.11145 0.25 8.51807 0.25 11.5C0.25 14.6175 0.25 14.8886 0.25 16.1084C0.25 17.3283 0.521085 18.1416 0.79217 18.8193C1.06325 19.497 1.46988 20.1747 2.14759 20.8524C2.8253 21.5301 3.36747 21.8012 4.18072 22.2078C4.85843 22.4789 5.67169 22.6145 6.89157 22.75C8.11145 22.75 8.51807 22.75 11.5 22.75C14.4819 22.75 14.8886 22.75 16.1084 22.75C17.3283 22.75 18.1416 22.4789 18.8193 22.2078C19.497 21.9367 20.1747 21.5301 20.8524 20.8524C21.5301 20.1747 21.8012 19.6325 22.2078 18.8193C22.4789 18.1416 22.6145 17.3283 22.75 16.1084C22.75 14.8886 22.75 14.4819 22.75 11.5C22.75 8.51807 22.75 8.11145 22.75 6.89157C22.75 5.67169 22.4789 4.85843 22.2078 4.18072C21.9367 3.50301 21.5301 2.8253 20.8524 2.14759C20.1747 1.46988 19.6325 1.1988 18.8193 0.79217C18.1416 0.521085 17.3283 0.385542 16.1084 0.25C14.8886 0.25 14.6175 0.25 11.5 0.25Z" fill="white"/>
<path d="M11.5 5.67169C8.24699 5.67169 5.67169 8.24699 5.67169 11.5C5.67169 14.753 8.24699 17.3283 11.5 17.3283C14.753 17.3283 17.3283 14.753 17.3283 11.5C17.3283 8.24699 14.753 5.67169 11.5 5.67169ZM11.5 15.2952C9.46687 15.2952 7.70482 13.6687 7.70482 11.5C7.70482 9.46687 9.33133 7.70482 11.5 7.70482C13.5331 7.70482 15.2952 9.33133 15.2952 11.5C15.2952 13.5331 13.5331 15.2952 11.5 15.2952Z" fill="white"/>
<path d="M17.4639 6.89157C18.2124 6.89157 18.8193 6.28472 18.8193 5.53615C18.8193 4.78757 18.2124 4.18072 17.4639 4.18072C16.7153 4.18072 16.1084 4.78757 16.1084 5.53615C16.1084 6.28472 16.7153 6.89157 17.4639 6.89157Z" fill="white"/>
</svg>
