<svg width="30" height="41" viewBox="0 0 30 41" fill="none" xmlns="http://www.w3.org/2000/svg">
<path d="M15 0.898926C6.72889 0.898926 0 7.5431 0 15.71C0 27.8781 13.5069 39.7593 14.0821 40.2592C14.3444 40.4872 14.6721 40.6013 15 40.6013C15.3279 40.6013 15.6556 40.4873 15.918 40.2592C16.4929 39.7594 30 27.8783 30 15.71C30 7.5431 23.2711 0.898926 15 0.898926ZM15 37.3513C12.0138 34.4952 2.7778 24.9154 2.7778 15.71C2.7778 9.055 8.26068 3.64065 15 3.64065C21.7393 3.64065 27.2222 9.055 27.2222 15.71C27.2222 24.9153 17.9862 34.4951 15 37.3513Z" fill="#D4BFA8"/>
<path d="M15 8.80981C11.1708 8.80981 8.05567 11.905 8.05567 15.7094C8.05567 19.514 11.1708 22.6091 15 22.6091C18.8292 22.6091 21.9444 19.514 21.9444 15.7094C21.9444 11.905 18.8292 8.80981 15 8.80981ZM15 19.8673C12.7025 19.8673 10.8333 18.0021 10.8333 15.7094C10.8333 13.4169 12.7025 11.5515 15 11.5515C17.2976 11.5515 19.1667 13.4167 19.1667 15.7094C19.1667 18.0021 17.2976 19.8673 15 19.8673Z" fill="#D4BFA8"/>
</svg>
