<svg width="30" height="30" viewBox="0 0 30 30" fill="none" xmlns="http://www.w3.org/2000/svg">
<path d="M16.2276 1.24473C16.2276 0.91513 16.3595 0.599034 16.5943 0.365975C16.8291 0.132916 17.1476 0.00198462 17.4796 0.00198462C20.7991 0.00560298 23.9816 1.31608 26.3288 3.64588C28.6761 5.97569 29.9964 9.13455 30 12.4294C30 12.759 29.8681 13.0751 29.6333 13.3081C29.3985 13.5412 29.08 13.6721 28.748 13.6721C28.4159 13.6721 28.0974 13.5412 27.8626 13.3081C27.6278 13.0751 27.4959 12.759 27.4959 12.4294C27.4929 9.79354 26.4367 7.26649 24.5589 5.40266C22.6811 3.53883 20.1352 2.49043 17.4796 2.48747C17.1476 2.48747 16.8291 2.35653 16.5943 2.12348C16.3595 1.89042 16.2276 1.57432 16.2276 1.24473ZM17.4796 7.45843C18.8079 7.45843 20.0817 7.98215 21.0209 8.91439C21.9601 9.84662 22.4878 11.111 22.4878 12.4294C22.4878 12.759 22.6197 13.0751 22.8545 13.3081C23.0893 13.5412 23.4077 13.6721 23.7398 13.6721C24.0719 13.6721 24.3903 13.5412 24.6251 13.3081C24.8599 13.0751 24.9918 12.759 24.9918 12.4294C24.9899 10.4524 24.1978 8.557 22.7894 7.15907C21.381 5.76114 19.4714 4.97492 17.4796 4.97295C17.1476 4.97295 16.8291 5.10388 16.5943 5.33694C16.3595 5.57 16.2276 5.88609 16.2276 6.21569C16.2276 6.54528 16.3595 6.86138 16.5943 7.09444C16.8291 7.3275 17.1476 7.45843 17.4796 7.45843ZM28.8644 20.8042C29.59 21.5264 29.9974 22.5047 29.9974 23.5246C29.9974 24.5445 29.59 25.5228 28.8644 26.2449L27.725 27.5486C17.4708 37.2929 -7.48228 12.5313 2.18346 2.32094L3.6233 1.0782C4.3517 0.378134 5.32849 -0.00913906 6.34236 0.000163805C7.35623 0.00946667 8.32564 0.414597 9.04087 1.12791C9.07969 1.16643 11.3997 4.15771 11.3997 4.15771C12.0881 4.87555 12.4713 5.82911 12.4697 6.82016C12.4681 7.81121 12.0817 8.76352 11.391 9.47912L9.94109 11.2886C10.7435 13.2236 11.9231 14.9823 13.4124 16.4634C14.9016 17.9446 16.671 19.1191 18.619 19.9194L20.4532 18.4716C21.1743 17.7865 22.1335 17.4035 23.1317 17.4021C24.1299 17.4007 25.0902 17.781 25.8132 18.4641C25.8132 18.4641 28.8256 20.7657 28.8644 20.8042ZM27.1416 22.6112C27.1416 22.6112 24.1455 20.3233 24.1067 20.2847C23.8487 20.0309 23.5002 19.8885 23.1369 19.8885C22.7737 19.8885 22.4252 20.0309 22.1672 20.2847C22.1334 20.3195 19.6081 22.3166 19.6081 22.3166C19.4379 22.4511 19.2354 22.5392 19.0204 22.5723C18.8055 22.6055 18.5856 22.5824 18.3823 22.5055C15.8588 21.5729 13.5667 20.1129 11.6612 18.2244C9.7557 16.3358 8.28139 14.0629 7.3381 11.5595C7.25446 11.355 7.2272 11.1321 7.2591 10.9137C7.29101 10.6953 7.38094 10.4892 7.51965 10.3167C7.51965 10.3167 9.53167 7.80888 9.56548 7.77657C9.82123 7.52055 9.96473 7.17461 9.96473 6.81407C9.96473 6.45353 9.82123 6.10759 9.56548 5.85156C9.52667 5.81428 7.22166 2.83792 7.22166 2.83792C6.95986 2.60491 6.61818 2.48013 6.26667 2.48914C5.91515 2.49815 5.58042 2.64028 5.33108 2.88639L3.89124 4.12913C-3.17276 12.5599 18.4512 32.8327 25.8946 25.851L27.0352 24.5461C27.3025 24.3004 27.463 23.9611 27.4829 23.6C27.5027 23.2389 27.3803 22.8843 27.1416 22.6112Z" fill="#D4BFA8"/>
</svg>
