<svg width="14" height="14" viewBox="0 0 14 14" fill="none" xmlns="http://www.w3.org/2000/svg">
<path d="M7.57287 0.585226C7.57287 0.430262 7.63443 0.281645 7.744 0.172069C7.85358 0.0624924 8.00219 0.000933097 8.15715 0.000933097C9.70625 0.00263432 11.1914 0.618773 12.2868 1.71417C13.3822 2.80956 13.9983 4.29474 14 5.84386C14 5.99883 13.9384 6.14745 13.8289 6.25702C13.7193 6.3666 13.5707 6.42816 13.4157 6.42816C13.2608 6.42816 13.1121 6.3666 13.0026 6.25702C12.893 6.14745 12.8314 5.99883 12.8314 5.84386C12.83 4.60458 12.3371 3.41645 11.4608 2.54014C10.5845 1.66383 9.39642 1.17091 8.15715 1.16952C8.00219 1.16952 7.85358 1.10796 7.744 0.998384C7.63443 0.888808 7.57287 0.74019 7.57287 0.585226ZM8.15715 3.50669C8.777 3.50669 9.37146 3.75293 9.80976 4.19123C10.2481 4.62954 10.4943 5.22401 10.4943 5.84386C10.4943 5.99883 10.5558 6.14745 10.6654 6.25702C10.775 6.3666 10.9236 6.42816 11.0786 6.42816C11.2335 6.42816 11.3822 6.3666 11.4917 6.25702C11.6013 6.14745 11.6629 5.99883 11.6629 5.84386C11.6619 4.91436 11.2923 4.0232 10.635 3.36594C9.97779 2.70869 9.08664 2.33903 8.15715 2.33811C8.00219 2.33811 7.85358 2.39966 7.744 2.50924C7.63443 2.61882 7.57287 2.76743 7.57287 2.9224C7.57287 3.07736 7.63443 3.22598 7.744 3.33556C7.85358 3.44513 8.00219 3.50669 8.15715 3.50669ZM13.4701 9.78142C13.8087 10.121 13.9988 10.5809 13.9988 11.0604C13.9988 11.54 13.8087 11.9999 13.4701 12.3395L12.9384 12.9524C8.15306 17.5338 -3.49173 5.89178 1.01895 1.09122L1.69087 0.506931C2.03079 0.177785 2.48663 -0.00429686 2.95977 7.70154e-05C3.43291 0.00445089 3.8853 0.194929 4.21907 0.530303C4.23719 0.548416 5.31987 1.95481 5.31987 1.95481C5.64112 2.29231 5.81996 2.74064 5.8192 3.2066C5.81844 3.67256 5.63814 4.1203 5.31578 4.45675L4.63918 5.30748C5.01361 6.21729 5.56414 7.04415 6.25911 7.74054C6.95408 8.43692 7.77981 8.98912 8.68885 9.3654L9.54483 8.6847C9.88132 8.36259 10.329 8.18249 10.7948 8.18184C11.2606 8.18119 11.7088 8.36002 12.0462 8.68119C12.0462 8.68119 13.4519 9.7633 13.4701 9.78142ZM12.6661 10.631C12.6661 10.631 11.2679 9.55529 11.2498 9.53718C11.1294 9.41783 10.9668 9.35086 10.7972 9.35086C10.6277 9.35086 10.4651 9.41783 10.3447 9.53718C10.3289 9.55354 9.15044 10.4925 9.15044 10.4925C9.07102 10.5557 8.9765 10.5972 8.8762 10.6127C8.7759 10.6283 8.67327 10.6175 8.57842 10.5813C7.40077 10.1428 6.33111 9.4564 5.44189 8.56847C4.55266 7.68054 3.86465 6.61188 3.42445 5.43486C3.38542 5.33872 3.37269 5.23391 3.38758 5.13122C3.40247 5.02853 3.44444 4.93166 3.50917 4.85057C3.50917 4.85057 4.44811 3.67146 4.46389 3.65627C4.58324 3.5359 4.65021 3.37325 4.65021 3.20374C4.65021 3.03422 4.58324 2.87157 4.46389 2.7512C4.44578 2.73367 3.37011 1.33429 3.37011 1.33429C3.24794 1.22474 3.08849 1.16607 2.92444 1.17031C2.7604 1.17454 2.6042 1.24137 2.48784 1.35708L1.81591 1.94137C-1.48062 5.90522 8.61056 15.4368 12.0841 12.1542L12.6164 11.5407C12.7411 11.4252 12.8161 11.2657 12.8253 11.0959C12.8346 10.9261 12.7775 10.7594 12.6661 10.631Z" fill="white"/>
</svg>
