<svg width="95" height="57" viewBox="0 0 95 57" fill="none" xmlns="http://www.w3.org/2000/svg">
<path d="M77.0687 9.48516L70.0031 2.41953C68.4394 0.869579 66.3267 -1.71979e-05 64.125 2.55095e-10H30.4594C28.2625 2.55095e-10 26.1398 0.875782 24.5813 2.41953L17.5156 9.48516H0V47.4406H9.5C12.1125 47.4406 14.2203 45.3328 14.2352 42.7352H15.5859L28.1438 54.0758C32.7305 57.8016 39.0984 57.8906 43.8188 54.6398C45.6742 56.243 47.6781 57 49.9195 57C52.6211 57 55.1594 55.9016 57.1633 53.4375C60.4438 54.7289 64.318 53.8234 66.6633 50.9438L70.5523 46.1492C71.3836 45.125 71.9031 43.9523 72.1703 42.7352H80.7648C80.7797 45.3328 82.9023 47.4406 85.5 47.4406H95V9.48516H77.0687ZM7.125 42.6906C5.81875 42.6906 4.75 41.6219 4.75 40.3156C4.75 39.0094 5.81875 37.9406 7.125 37.9406C8.43125 37.9406 9.5 39.0094 9.5 40.3156C9.5 41.6367 8.43125 42.6906 7.125 42.6906ZM65.0156 41.6664L61.1414 46.4461C60.7258 46.9508 59.9836 47.0398 59.4641 46.6242L55.9164 43.7445L51.4633 49.1625C50.5727 50.2461 49.2367 49.875 48.7914 49.5187L43.3289 44.843L41.0133 47.693C38.95 50.2312 35.1945 50.6172 32.8047 48.6727L18.3617 35.6102H14.25V16.5953H20.4695L29.6281 7.45156C29.925 7.33281 30.1773 7.22891 30.4742 7.11016H38.8906L33.1461 12.3797C28.782 16.3727 28.5297 23.1117 32.493 27.4164C34.6898 29.8211 41.5773 33.532 47.5594 28.0695L48.7766 26.9563L64.8375 39.9891C65.3422 40.4047 65.4164 41.1617 65.0156 41.6664ZM80.75 35.6102H70.4781C70.1367 35.1945 69.7508 34.8086 69.3352 34.4672L54.0906 22.0875L55.9461 20.3953C56.9109 19.5047 56.9852 18.0055 56.0945 17.0406L54.4766 15.3039C53.5859 14.3391 52.0867 14.2797 51.1219 15.1555L42.9281 22.6664C41.518 23.9578 39.1133 24.0617 37.7922 22.6664C36.4117 21.1969 36.5305 18.9406 37.9703 17.6344L47.7078 8.71328C48.8062 7.70391 50.2313 7.15469 51.7156 7.15469L64.1398 7.125C64.4516 7.125 64.7484 7.24375 64.9563 7.46641L74.1148 16.6102H80.75V35.6102ZM87.875 42.6906C86.5687 42.6906 85.5 41.6219 85.5 40.3156C85.5 39.0094 86.5687 37.9406 87.875 37.9406C89.1813 37.9406 90.25 39.0094 90.25 40.3156C90.25 41.6367 89.1813 42.6906 87.875 42.6906Z" fill="white"/>
</svg>
