<svg width="25" height="17" viewBox="0 0 25 17" fill="none" xmlns="http://www.w3.org/2000/svg">
<path d="M13.6053 16.375C5.1492 16.375 0.325968 10.4628 0.125 0.625H4.36079C4.49992 7.84572 7.62266 10.9043 10.0961 11.5349V0.625H14.0846V6.85248C16.5271 6.58446 19.0933 3.74662 19.959 0.625H23.9475C23.6212 2.24396 22.971 3.77686 22.0373 5.12781C21.1036 6.47877 19.9067 7.61871 18.5213 8.47635C20.0677 9.26 21.4336 10.3692 22.5288 11.7307C23.624 13.0922 24.4237 14.6752 24.875 16.375H20.4846C20.0795 14.8986 19.2561 13.5769 18.1176 12.5757C16.9791 11.5744 15.5761 10.9382 14.0846 10.7466V16.375H13.6053Z" fill="white"/>
</svg>
